<?xml version="1.0" encoding="UTF-8"?>
<svg id="Layer_1" data-name="Layer 1" xmlns="http://www.w3.org/2000/svg" viewBox="0 0 256 256">
  <defs>
    <style>
      .cls-1 {
        fill: #cf0000;
      }

      .cls-2 {
        fill: #55babf;
      }

      .cls-3 {
        fill: #032235;
      }
    </style>
  </defs>
  <g>
    <path class="cls-2" d="M108.24,43.93c-5.82,4.29-13.38,8.34-23.2,12.31-9.82,3.97-15.99,5.16-20.27,6.02s-10.08,2.46-11.21,11.61-3.48,30.67-3.27,44.66,4.52,21.61,8.54,29.37,17.38,27.31,28.32,39.42c10.98,12.11,27.95,27.31,33.57,30.47,0,0,.12-.06.29-.2V37.59c-4.17-.2-7.01,2.06-12.8,6.34h.03Z"/>
    <path class="cls-1" d="M188.17,75.67c-.75-6.84-2.66-9.33-5.76-11.44-3.07-2.11-5.07-1.68-10.25-2.93-5.21-1.25-14.31-3.77-27.2-10.28-12.89-6.52-17.72-13.12-23.84-13.44h-.09v179.94c2.14-1.53,15.76-11.47,26.99-23.46,12.22-13.06,22.88-27.31,30.55-39.3,7.7-11.99,10.72-19.98,12.14-30.93,1.42-10.95-1.8-41.36-2.58-48.19l.03.03Z"/>
  </g>
  <path class="cls-3" d="M121.76,204.87c-.87,0-1.85-.41-2.43-1.62-.32-.7-.41-.84-.49-25.63-.06-14.37-.06-33.05-.09-51.09,0-27.66-.06-53.78-.17-57.72-.12-3.62-.29-6.52-.49-8.8-.32,2.49-.7,5.79-1.07,10.14-.64,7.21-1.22,20.62-1.71,32.44-.43,10.34-.87,20.1-1.27,24.5-.55,6.02-.84,9.07-3.53,9.33-2.49.23-3.24-2.26-4.17-5.44-.46-1.56-1.01-2.43-1.33-2.81-.43.43-1.04,1.39-1.48,2.06-1.91,2.93-4.84,7.33-10.95,7.33h-44.57c-1.36,0-2.46-1.1-2.46-2.46s1.1-2.46,2.46-2.46h44.57c3.21,0,4.78-2.03,6.84-5.1,1.45-2.17,2.93-4.43,5.65-4.43,1.59,0,3.01.87,4.17,2.52.38-4.69.75-13.7,1.16-23.2.49-11.9,1.07-25.37,1.74-32.67.64-7.04,1.22-11.76,1.82-14.86.49-2.4,1.3-6.46,4.46-6.46,2.98,0,3.71,3.62,4.23,7.67.52,4.03.78,9.07.87,12.6.12,4.03.14,30.18.17,57.87v9.99c.9-5.04,3.68-6.43,5.73-7.47.78-.41,1.45-.75,1.94-1.25,1.45-1.48,2.11-5.39,2.81-9.53.17-.96.32-1.94.49-2.95.43-2.37,1.85-7.91,5.71-8.05,3.85-.17,5.33,5.27,5.82,7.07,1.51,5.59,2.55,11.15,3.3,15.21.46,2.43.81,4.37,1.13,5.44.26.98.64,1.62,1.01,1.71.61.14,1.74-.46,2.11-.84,2.66-2.84,3.5-3.56,7.27-3.56h34.09c1.36,0,2.46,1.1,2.46,2.46s-1.1,2.46-2.46,2.46h-34.09c-1.07,0-1.53.03-1.74.14-.35.2-1.04.93-1.94,1.88-1.22,1.3-4.05,2.95-6.89,2.26-1.56-.38-3.59-1.59-4.58-5.18-.35-1.27-.72-3.27-1.22-5.82-.75-3.97-1.77-9.41-3.21-14.83-.35-1.27-.67-2.11-.93-2.66-.32.7-.72,1.77-.98,3.27-.17.98-.35,1.94-.49,2.87-.87,5.16-1.59,9.59-4.14,12.19-1.07,1.07-2.2,1.65-3.21,2.17-1.74.9-2.69,1.36-3.16,4.17-.9,5.53-2.75,45.38-3.13,55.06-.14,3.45-.32,6.08-.55,7.82-.23,1.77-.49,3.94-2.55,4.37-.14.03-.32.06-.49.06l-.03-.14Z"/>
  <path class="cls-3" d="M210.24,90.68c-1.65-11.21-3.16-34.49-4.08-39.97-.96-5.47-4.89-8.37-9.73-9.53-8.63-2.09-16.28-1.16-27.46-4.11-11.15-2.95-21.49-8.51-28.01-12.86s-11.96-11.21-19.58-11.21c-8.2,0-13.35,5.44-17.93,8.86-4.58,3.42-13.93,9.53-24.36,13.41-10.4,3.88-19.23,4.29-24.73,4.32-5.5,0-11.01.9-14.54,3.88-3.53,2.95-3.77,6.28-4.4,12.77-.64,6.49-2.66,22.45-4.11,35.1-1.42,12.66-6.75,31.68-.64,49.67,6.11,17.99,20.59,41.3,40.84,63.34,20.24,22.07,36.64,32.76,41.36,36.03s10.05,3.36,14.13.93,17.41-11.99,30.18-23.84c12.77-11.85,30.84-34.84,40.63-50.1,9.79-15.26,14.42-30.03,15.38-41.3.96-11.27-1.3-24.21-2.95-35.42v.03ZM190.72,123.87c-1.42,10.95-4.46,18.94-12.14,30.93-7.7,11.99-18.33,26.24-30.55,39.3-11.21,11.99-24.85,21.92-26.99,23.46-.2.14-.29.2-.29.2-5.62-3.16-22.62-18.36-33.57-30.47-10.98-12.11-24.33-31.68-28.32-39.42s-8.31-15.38-8.54-29.37c-.23-13.99,2.14-35.48,3.27-44.66,1.13-9.15,6.92-10.74,11.21-11.61s10.46-2.06,20.27-6c9.82-3.97,17.38-7.99,23.2-12.31,5.79-4.26,8.63-6.55,12.8-6.34h.09c6.11.35,10.92,6.92,23.84,13.44,12.89,6.52,21.98,9.04,27.2,10.28,5.21,1.25,7.18.78,10.25,2.93,3.07,2.11,5.01,4.6,5.76,11.44.75,6.84,4,37.25,2.58,48.19h-.06Z"/>
</svg>