<?xml version="1.0" encoding="UTF-8"?>
<svg id="Layer_1" data-name="Layer 1" xmlns="http://www.w3.org/2000/svg" viewBox="0 0 400 400">
  <defs>
    <style>
      .cls-1 {
        fill: #cf0000;
      }

      .cls-2 {
        fill: #55babf;
      }

      .cls-3 {
        fill: #fff;
      }
    </style>
  </defs>
  <g>
    <path class="cls-3" d="M193.02,71.96c4.24,0,7.29,3.84,10.95,6.27s9.43,5.54,15.66,7.19c6.24,1.65,10.53,1.13,15.35,2.3,2.7.65,4.91,2.28,5.44,5.33s1.38,16.08,2.28,22.35,2.19,13.51,1.65,19.81-3.13,14.54-8.6,23.09c-5.47,8.53-15.58,21.41-22.72,28.02-7.14,6.62-14.59,11.97-16.88,13.33s-5.26,1.31-7.9-.52c-2.64-1.83-11.79-7.81-23.13-20.15-11.32-12.34-19.42-25.36-22.84-35.42-3.42-10.06-.44-20.68.36-27.77.79-7.09,1.94-16,2.3-19.63s.49-5.49,2.46-7.14c1.98-1.65,5.04-2.15,8.13-2.17,3.08,0,8.02-.26,13.83-2.41,5.81-2.15,11.06-5.59,13.62-7.5,2.56-1.91,5.44-4.96,10.02-4.96v-.02Z"/>
    <g>
      <path class="cls-2" d="M185.67,89.26c-3.26,2.4-7.48,4.66-12.97,6.88-5.49,2.22-8.94,2.88-11.34,3.37s-5.64,1.38-6.27,6.49c-.63,5.12-1.94,17.15-1.83,24.97.11,7.82,2.53,12.08,4.78,16.42s9.72,15.27,15.84,22.04c6.14,6.77,15.63,15.27,18.77,17.04,0,0,.06-.03.16-.11v-100.65c-2.33-.11-3.92,1.15-7.16,3.55h.02Z"/>
      <path class="cls-1" d="M230.36,107.01c-.42-3.82-1.49-5.21-3.22-6.4-1.72-1.18-2.83-.94-5.73-1.64-2.92-.7-8-2.11-15.21-5.75s-9.91-7.34-13.33-7.51h-.05v100.62c1.2-.86,8.81-6.41,15.09-13.12,6.83-7.3,12.79-15.27,17.09-21.98,4.31-6.7,5.99-11.17,6.79-17.3.79-6.12-1-23.13-1.44-26.95l.02.02Z"/>
    </g>
    <path class="cls-3" d="M193.23,179.25c-.49,0-1.04-.23-1.36-.91-.18-.39-.23-.47-.28-14.33-.03-8.03-.03-18.48-.05-28.57,0-15.47-.03-30.07-.1-32.28-.06-2.02-.16-3.64-.28-4.92-.18,1.39-.39,3.24-.6,5.67-.36,4.03-.68,11.53-.96,18.14-.24,5.78-.49,11.24-.71,13.7-.31,3.37-.47,5.07-1.98,5.21-1.39.13-1.81-1.26-2.33-3.04-.26-.87-.57-1.36-.74-1.57-.24.24-.58.78-.83,1.15-1.07,1.64-2.7,4.1-6.12,4.1h-24.92c-.76,0-1.38-.62-1.38-1.38s.62-1.38,1.38-1.38h24.92c1.8,0,2.67-1.13,3.82-2.85.81-1.21,1.64-2.48,3.16-2.48.89,0,1.68.49,2.33,1.41.21-2.62.42-7.66.65-12.97.28-6.66.6-14.19.97-18.27.36-3.94.68-6.58,1.02-8.31.28-1.34.73-3.61,2.49-3.61,1.67,0,2.07,2.02,2.36,4.29.29,2.25.44,5.07.49,7.04.06,2.25.08,16.88.1,32.36v5.59c.5-2.82,2.06-3.6,3.21-4.18.44-.23.81-.42,1.09-.7.81-.83,1.18-3.01,1.57-5.33.1-.53.18-1.09.28-1.65.24-1.33,1.04-4.42,3.19-4.5,2.15-.1,2.98,2.95,3.26,3.95.84,3.13,1.43,6.24,1.85,8.5.26,1.36.45,2.45.63,3.04.15.55.36.91.57.96.34.08.97-.26,1.18-.47,1.49-1.59,1.96-1.99,4.06-1.99h19.06c.76,0,1.38.62,1.38,1.38s-.62,1.38-1.38,1.38h-19.06c-.6,0-.86.02-.97.08-.19.11-.58.52-1.09,1.05-.68.73-2.27,1.65-3.85,1.26-.87-.21-2.01-.89-2.56-2.9-.19-.71-.4-1.83-.68-3.26-.42-2.22-.99-5.26-1.8-8.29-.19-.71-.37-1.18-.52-1.49-.18.39-.4.99-.55,1.83-.1.55-.19,1.09-.28,1.6-.49,2.88-.89,5.36-2.32,6.82-.6.6-1.23.92-1.8,1.21-.97.5-1.51.76-1.77,2.33-.5,3.09-1.54,25.38-1.75,30.79-.08,1.93-.18,3.4-.31,4.37-.13.99-.28,2.2-1.43,2.45-.08.02-.18.03-.28.03l-.02-.08Z"/>
  </g>
  <path class="cls-3" d="M34.53,255.75c-3.14,0-5.96-.66-8.45-1.98-2.48-1.31-4.44-2.92-5.85-4.81-.32-.4-.31-.84.06-1.33l4.53-5.15c.44-.52.91-.6,1.39-.24,1.49,1.38,2.85,2.36,4.06,2.96s2.54.91,4,.91c3.11,0,4.66-1.09,4.66-3.27,0-.49-.06-.91-.21-1.28-.15-.36-.44-.7-.87-1-.44-.31-.81-.52-1.12-.66s-.86-.39-1.67-.76l-5.15-2.36c-2.7-1.25-4.87-2.8-6.51-4.66-1.64-1.86-2.45-4.34-2.45-7.45,0-3.95,1.3-7.03,3.9-9.23s5.86-3.3,9.78-3.3c4.92,0,9.25,1.89,12.96,5.7.44.36.47.81.06,1.33l-4.49,5.39c-.36.57-.79.68-1.28.36-2.62-2.11-4.92-3.14-6.9-3.14-1.25,0-2.22.28-2.88.84-.66.57-1,1.3-1,2.19,0,.24.02.47.06.66.03.21.11.39.21.58.1.18.19.34.28.45.08.11.23.26.42.42s.36.29.49.39c.11.1.34.23.66.36.32.15.57.26.73.34s.45.23.87.42c.42.21.73.34.94.42l4.11,1.81c1.33.6,2.45,1.2,3.37,1.78.91.58,1.86,1.36,2.88,2.3,1,.96,1.77,2.11,2.27,3.48.5,1.38.76,2.93.76,4.66,0,4.24-1.46,7.43-4.36,9.6-2.92,2.15-6.33,3.24-10.3,3.24v.03Z"/>
  <path class="cls-3" d="M64.28,255.02c-.6,0-.91-.32-.91-.97v-18.41l-12.36-21.93c-.36-.73-.16-1.09.6-1.09h8.97c.52,0,.91.21,1.15.6l6.9,12.91,6.9-12.91c.24-.4.6-.6,1.09-.6h8.97c.81,0,1.04.36.66,1.09l-12.36,22.04v18.28c0,.65-.32.97-.97.97h-8.66l.02.02Z"/>
  <path class="cls-3" d="M126.36,212.62c.65,0,.97.32.97.97v40.46c0,.65-.32.97-.97.97h-9.99c-.49,0-.84-.19-1.09-.6l-12.96-24.34v23.98c0,.65-.32.97-.97.97h-8.66c-.6,0-.91-.32-.91-.97v-40.47c0-.65.31-.97.91-.97h9.99c.49,0,.84.21,1.09.6l12.96,24.34v-23.98c0-.65.32-.97.97-.97h8.66v.02Z"/>
  <path class="cls-3" d="M155.56,255.82c-6.06,0-11.24-2.09-15.53-6.27-4.31-4.18-6.45-9.36-6.45-15.53s2.15-11.37,6.45-15.56c4.31-4.19,9.47-6.3,15.53-6.3s11,2.14,15.08,6.41c.32.32.28.73-.11,1.21l-5.39,5.75c-.32.49-.73.52-1.21.11-2.43-2.11-5.21-3.14-8.36-3.14s-5.93,1.09-8.08,3.27-3.24,4.92-3.24,8.24,1.09,6.04,3.24,8.21c2.15,2.15,4.86,3.24,8.08,3.24s5.94-1.05,8.36-3.14c.44-.36.87-.32,1.28.11l5.33,5.75c.4.44.44.83.11,1.15-4.08,4.32-9.1,6.48-15.08,6.48h0Z"/>
  <path class="cls-3" d="M177.73,255.02c-.6,0-.91-.32-.91-.97v-40.46c0-.65.31-.97.91-.97h8.66c.65,0,.97.32.97.97v16.05h13.51v-16.05c0-.65.32-.97.97-.97h8.66c.6,0,.91.32.91.97v40.46c0,.65-.31.97-.91.97h-8.66c-.65,0-.97-.32-.97-.97v-15.14h-13.51v15.14c0,.65-.32.97-.97.97,0,0-8.66,0-8.66,0Z"/>
  <path class="cls-3" d="M250.04,253.94c.44.73.24,1.09-.6,1.09h-9.2c-.49,0-.84-.19-1.09-.6l-8.36-13.68h-1.33v13.33c0,.65-.32.97-.97.97h-8.66c-.6,0-.91-.32-.91-.97v-40.47c0-.65.31-.97.91-.97h13.33c5.05,0,8.86,1.26,11.45,3.79,2.59,2.53,3.87,5.94,3.87,10.27,0,6.3-2.53,10.53-7.56,12.66l9.15,14.59h-.03ZM229.44,221.95v9.44h3.45c3.68,0,5.51-1.57,5.51-4.73s-1.83-4.73-5.51-4.73h-3.45v.02Z"/>
  <path class="cls-3" d="M290.8,249.48c-4.28,4.23-9.43,6.33-15.45,6.33s-11.16-2.11-15.45-6.33c-4.28-4.23-6.41-9.38-6.41-15.48s2.14-11.27,6.41-15.5c4.28-4.24,9.43-6.36,15.45-6.36s11.16,2.12,15.45,6.36c4.28,4.24,6.41,9.41,6.41,15.5s-2.14,11.26-6.41,15.48ZM267.37,242.18c2.14,2.19,4.81,3.27,8,3.27s5.85-1.09,7.97-3.27c2.12-2.19,3.17-4.91,3.17-8.18s-1.05-6.06-3.17-8.24c-2.12-2.19-4.78-3.27-7.97-3.27s-5.86,1.09-8,3.27-3.21,4.92-3.21,8.24,1.07,5.99,3.21,8.18Z"/>
  <path class="cls-3" d="M338.11,212.62c.65,0,.97.32.97.97v40.46c0,.65-.32.97-.97.97h-9.99c-.49,0-.84-.19-1.09-.6l-12.96-24.34v23.98c0,.65-.32.97-.97.97h-8.66c-.6,0-.91-.32-.91-.97v-40.47c0-.65.31-.97.91-.97h9.99c.49,0,.84.21,1.09.6l12.96,24.34v-23.98c0-.65.32-.97.97-.97h8.66v.02Z"/>
  <path class="cls-3" d="M357.85,255.02c-.6,0-.91-.32-.91-.97v-18.41l-12.36-21.93c-.36-.73-.16-1.09.6-1.09h8.97c.52,0,.91.21,1.15.6l6.9,12.91,6.9-12.91c.24-.4.6-.6,1.09-.6h8.97c.81,0,1.04.36.66,1.09l-12.36,22.04v18.28c0,.65-.32.97-.97.97h-8.66l.02.02Z"/>
  <path class="cls-3" d="M147.71,300.95c.6,0,.91.31.91.91v7.51c0,.6-.31.91-.91.91h-21.44c-.6,0-.91-.32-.91-.97v-40.46c0-.65.31-.97.91-.97h8.66c.65,0,.97.32.97.97v32.1s11.81,0,11.81,0Z"/>
  <path class="cls-3" d="M191.5,309.25c.11.28.1.52-.06.73s-.4.31-.73.31h-9.02c-.57,0-.92-.24-1.09-.73l-1.57-5.09h-14.48l-1.57,5.09c-.16.49-.5.73-1.04.73h-9.02c-.32,0-.57-.1-.73-.31-.16-.19-.18-.44-.06-.73l13.93-40.63c.19-.49.58-.73,1.15-.73h9.15c.6,0,1,.24,1.21.73l13.93,40.63ZM167.52,295.14h8.6l-4.31-13.81-4.31,13.81h.02Z"/>
  <path class="cls-3" d="M197.8,310.28c-.6,0-.91-.32-.91-.97v-40.46c0-.65.31-.97.91-.97h15.21c3.6,0,6.45,1.04,8.57,3.13,2.12,2.07,3.17,4.68,3.17,7.79,0,2.14-.52,3.95-1.54,5.46-1.04,1.49-2.27,2.61-3.72,3.34,2.27.65,4.18,1.85,5.75,3.61,1.57,1.75,2.36,4.08,2.36,7,0,3.71-1.3,6.66-3.87,8.84-2.59,2.19-6.38,3.27-11.39,3.27h-14.54v-.03ZM207.26,284.3h3.45c2.79,0,4.18-1.23,4.18-3.69s-1.39-3.51-4.18-3.51h-3.45v7.21ZM207.26,301.07h4.42c3.47,0,5.21-1.47,5.21-4.42s-1.73-4.31-5.21-4.31h-4.42v8.73Z"/>
  <path class="cls-3" d="M246.19,311.01c-3.14,0-5.96-.66-8.45-1.98-2.48-1.31-4.44-2.92-5.85-4.81-.32-.4-.31-.84.06-1.33l4.53-5.15c.44-.52.91-.6,1.39-.24,1.49,1.38,2.85,2.36,4.06,2.96s2.54.91,4,.91c3.11,0,4.66-1.09,4.66-3.27,0-.49-.06-.91-.21-1.28-.15-.36-.44-.7-.87-1-.44-.31-.81-.52-1.12-.66s-.86-.39-1.67-.76l-5.15-2.36c-2.7-1.25-4.87-2.8-6.51-4.66-1.64-1.86-2.45-4.34-2.45-7.45,0-3.95,1.3-7.03,3.9-9.23s5.86-3.3,9.78-3.3c4.92,0,9.25,1.89,12.96,5.7.44.36.47.81.06,1.33l-4.49,5.39c-.36.57-.79.68-1.28.36-2.62-2.11-4.92-3.14-6.9-3.14-1.25,0-2.22.28-2.88.84-.66.57-1,1.3-1,2.19,0,.24.02.47.06.66.03.21.11.39.21.58.1.18.19.34.28.45s.23.26.42.42.36.29.49.39c.11.1.34.23.66.36.32.15.57.26.73.34.16.08.45.23.87.42.42.21.73.34.94.42l4.11,1.81c1.33.6,2.45,1.2,3.37,1.78.91.58,1.86,1.36,2.88,2.3,1,.96,1.77,2.11,2.27,3.48.5,1.38.76,2.93.76,4.66,0,4.24-1.46,7.43-4.36,9.6-2.92,2.15-6.33,3.24-10.3,3.24v.03Z"/>
</svg>