<?xml version="1.0" encoding="UTF-8"?>
<svg id="Layer_1" data-name="Layer 1" xmlns="http://www.w3.org/2000/svg" viewBox="0 0 400 400">
  <defs>
    <style>
      .cls-1 {
        fill: #cf0000;
      }

      .cls-2 {
        fill: #55babf;
      }

      .cls-3 {
        fill: #032235;
      }
    </style>
  </defs>
  <path class="cls-2" d="M187.24,92.84c-3.24,2.39-7.46,4.65-12.93,6.86-5.47,2.21-8.91,2.87-11.3,3.36s-5.62,1.37-6.25,6.47-1.94,17.09-1.82,24.88,2.52,12.04,4.76,16.36c2.24,4.32,9.68,15.22,15.78,21.96,6.12,6.75,15.57,15.22,18.7,16.98,0,0,.06-.03.16-.11v-100.29c-2.32-.11-3.91,1.15-7.13,3.53h.02Z"/>
  <path class="cls-1" d="M231.78,110.53c-.42-3.81-1.48-5.2-3.21-6.37-1.71-1.18-2.82-.94-5.71-1.63-2.9-.69-7.97-2.1-15.15-5.73s-9.88-7.31-13.28-7.49h-.05v100.26c1.19-.86,8.78-6.39,15.04-13.07,6.81-7.28,12.75-15.22,17.03-21.9,4.29-6.68,5.97-11.13,6.76-17.23.79-6.1-1-23.04-1.44-26.85l.02.02Z"/>
  <path class="cls-3" d="M194.78,182.52c-.48,0-1.03-.23-1.36-.9-.18-.39-.23-.47-.27-14.28-.03-8-.03-18.41-.05-28.47,0-15.41-.03-29.97-.1-32.16-.06-2.02-.16-3.63-.27-4.91-.18,1.39-.39,3.23-.6,5.65-.36,4.02-.68,11.49-.95,18.07-.24,5.76-.48,11.2-.71,13.65-.31,3.36-.47,5.05-1.97,5.2-1.39.13-1.81-1.26-2.32-3.03-.26-.87-.56-1.36-.74-1.57-.24.24-.58.77-.82,1.15-1.07,1.63-2.69,4.08-6.1,4.08h-24.84c-.76,0-1.37-.61-1.37-1.37s.61-1.37,1.37-1.37h24.84c1.79,0,2.66-1.13,3.81-2.84.81-1.21,1.63-2.47,3.15-2.47.89,0,1.68.48,2.32,1.4.21-2.61.42-7.63.65-12.93.27-6.63.6-14.14.97-18.2.36-3.92.68-6.55,1.02-8.28.27-1.34.73-3.6,2.49-3.6,1.66,0,2.07,2.02,2.36,4.28.29,2.24.44,5.05.48,7.02.06,2.24.08,16.82.1,32.24v5.57c.5-2.81,2.05-3.58,3.2-4.16.44-.23.81-.42,1.08-.69.81-.82,1.18-3,1.57-5.31.1-.53.18-1.08.27-1.65.24-1.32,1.03-4.41,3.18-4.49,2.15-.1,2.97,2.94,3.24,3.94.84,3.11,1.42,6.21,1.84,8.47.26,1.36.45,2.44.63,3.03.15.55.36.9.56.95.34.08.97-.26,1.18-.47,1.48-1.58,1.95-1.98,4.05-1.98h18.99c.76,0,1.37.61,1.37,1.37s-.61,1.37-1.37,1.37h-18.99c-.6,0-.86.02-.97.08-.19.11-.58.52-1.08,1.05-.68.73-2.26,1.65-3.84,1.26-.87-.21-2-.89-2.55-2.89-.19-.71-.4-1.82-.68-3.24-.42-2.21-.98-5.24-1.79-8.26-.19-.71-.37-1.18-.52-1.48-.18.39-.4.98-.55,1.82-.1.55-.19,1.08-.27,1.6-.48,2.87-.89,5.34-2.31,6.79-.6.6-1.23.92-1.79,1.21-.97.5-1.5.76-1.76,2.32-.5,3.08-1.53,25.29-1.74,30.68-.08,1.92-.18,3.39-.31,4.36-.13.98-.27,2.19-1.42,2.44-.08.02-.18.03-.27.03l-.02-.08Z"/>
  <path class="cls-3" d="M35.12,263.25c-3.13,0-5.94-.66-8.42-1.97-2.47-1.31-4.42-2.9-5.83-4.79-.32-.4-.31-.84.06-1.32l4.52-5.13c.44-.52.9-.6,1.39-.24,1.48,1.37,2.84,2.36,4.05,2.95s2.53.9,3.99.9c3.1,0,4.65-1.08,4.65-3.26,0-.48-.06-.9-.21-1.27-.15-.36-.44-.69-.87-1-.44-.31-.81-.52-1.11-.66s-.86-.39-1.66-.76l-5.13-2.36c-2.69-1.24-4.86-2.79-6.49-4.65-1.63-1.86-2.44-4.32-2.44-7.42,0-3.94,1.29-7,3.89-9.2,2.6-2.19,5.84-3.29,9.75-3.29,4.91,0,9.21,1.89,12.91,5.68.44.36.47.81.06,1.32l-4.47,5.37c-.36.56-.79.68-1.27.36-2.61-2.1-4.91-3.13-6.87-3.13-1.24,0-2.21.27-2.87.84-.66.56-1,1.29-1,2.18,0,.24.02.47.06.66.03.21.11.39.21.58.1.18.19.34.27.45.08.11.23.26.42.42s.36.29.48.39c.11.1.34.23.66.36.32.15.56.26.73.34s.45.23.87.42c.42.21.73.34.94.42l4.1,1.81c1.32.6,2.44,1.19,3.36,1.78.9.58,1.86,1.36,2.87,2.29,1,.95,1.76,2.1,2.26,3.47.5,1.37.76,2.92.76,4.65,0,4.23-1.45,7.41-4.34,9.57-2.9,2.15-6.31,3.23-10.26,3.23v.03Z"/>
  <path class="cls-3" d="M64.76,262.52c-.6,0-.9-.32-.9-.97v-18.35l-12.31-21.85c-.36-.73-.16-1.08.6-1.08h8.94c.52,0,.9.21,1.15.6l6.87,12.86,6.87-12.86c.24-.4.6-.6,1.08-.6h8.94c.81,0,1.03.36.66,1.08l-12.31,21.96v18.22c0,.65-.32.97-.97.97h-8.63l.02.02Z"/>
  <path class="cls-3" d="M126.62,220.27c.65,0,.97.32.97.97v40.31c0,.65-.32.97-.97.97h-9.96c-.48,0-.84-.19-1.08-.6l-12.91-24.25v23.9c0,.65-.32.97-.97.97h-8.63c-.6,0-.9-.32-.9-.97v-40.33c0-.65.31-.97.9-.97h9.96c.48,0,.84.21,1.08.6l12.91,24.25v-23.9c0-.65.32-.97.97-.97h8.63v.02Z"/>
  <path class="cls-3" d="M155.71,263.31c-6.04,0-11.2-2.08-15.48-6.25-4.29-4.16-6.42-9.33-6.42-15.48s2.15-11.33,6.42-15.51c4.29-4.18,9.44-6.28,15.48-6.28s10.96,2.13,15.02,6.39c.32.32.27.73-.11,1.21l-5.37,5.73c-.32.48-.73.52-1.21.11-2.42-2.1-5.2-3.13-8.33-3.13s-5.91,1.08-8.05,3.26-3.23,4.91-3.23,8.21,1.08,6.02,3.23,8.18c2.15,2.15,4.84,3.23,8.05,3.23s5.92-1.05,8.33-3.13c.44-.36.87-.32,1.27.11l5.31,5.73c.4.44.44.82.11,1.15-4.07,4.31-9.07,6.46-15.02,6.46h0Z"/>
  <path class="cls-3" d="M177.81,262.52c-.6,0-.9-.32-.9-.97v-40.31c0-.65.31-.97.9-.97h8.63c.65,0,.97.32.97.97v15.99h13.46v-15.99c0-.65.32-.97.97-.97h8.63c.6,0,.9.32.9.97v40.31c0,.65-.31.97-.9.97h-8.63c-.65,0-.97-.32-.97-.97v-15.09h-13.46v15.09c0,.65-.32.97-.97.97,0,0-8.63,0-8.63,0Z"/>
  <path class="cls-3" d="M249.86,261.44c.44.73.24,1.08-.6,1.08h-9.17c-.48,0-.84-.19-1.08-.6l-8.33-13.64h-1.32v13.28c0,.65-.32.97-.97.97h-8.63c-.6,0-.9-.32-.9-.97v-40.33c0-.65.31-.97.9-.97h13.28c5.03,0,8.83,1.26,11.41,3.78,2.58,2.52,3.86,5.92,3.86,10.23,0,6.28-2.52,10.49-7.54,12.62l9.12,14.54h-.03ZM229.33,229.57v9.41h3.44c3.66,0,5.49-1.57,5.49-4.71s-1.82-4.71-5.49-4.71h-3.44v.02Z"/>
  <path class="cls-3" d="M290.48,257c-4.26,4.21-9.39,6.31-15.4,6.31s-11.12-2.1-15.4-6.31c-4.26-4.21-6.39-9.34-6.39-15.43s2.13-11.23,6.39-15.44c4.26-4.23,9.39-6.34,15.4-6.34s11.12,2.11,15.4,6.34c4.26,4.23,6.39,9.38,6.39,15.44s-2.13,11.22-6.39,15.43ZM267.13,249.72c2.13,2.18,4.79,3.26,7.97,3.26s5.83-1.08,7.94-3.26c2.11-2.18,3.16-4.89,3.16-8.15s-1.05-6.04-3.16-8.21c-2.11-2.18-4.76-3.26-7.94-3.26s-5.84,1.08-7.97,3.26-3.2,4.91-3.2,8.21,1.07,5.97,3.2,8.15Z"/>
  <path class="cls-3" d="M337.62,220.27c.65,0,.97.32.97.97v40.31c0,.65-.32.97-.97.97h-9.96c-.48,0-.84-.19-1.08-.6l-12.91-24.25v23.9c0,.65-.32.97-.97.97h-8.63c-.6,0-.9-.32-.9-.97v-40.33c0-.65.31-.97.9-.97h9.96c.48,0,.84.21,1.08.6l12.91,24.25v-23.9c0-.65.32-.97.97-.97h8.63v.02Z"/>
  <path class="cls-3" d="M357.29,262.52c-.6,0-.9-.32-.9-.97v-18.35l-12.31-21.85c-.36-.73-.16-1.08.6-1.08h8.94c.52,0,.9.21,1.15.6l6.87,12.86,6.87-12.86c.24-.4.6-.6,1.08-.6h8.94c.81,0,1.03.36.66,1.08l-12.31,21.96v18.22c0,.65-.32.97-.97.97h-8.63l.02.02Z"/>
  <path class="cls-3" d="M148.9,314.37c.6,0,.9.31.9.9v7.49c0,.6-.31.9-.9.9h-21.37c-.6,0-.9-.32-.9-.97v-40.31c0-.65.31-.97.9-.97h8.63c.65,0,.97.32.97.97v31.98s11.76,0,11.76,0Z"/>
  <path class="cls-3" d="M192.54,322.64c.11.27.1.52-.06.73s-.4.31-.73.31h-8.99c-.56,0-.92-.24-1.08-.73l-1.57-5.07h-14.43l-1.57,5.07c-.16.48-.5.73-1.03.73h-8.99c-.32,0-.56-.1-.73-.31-.16-.19-.18-.44-.06-.73l13.88-40.49c.19-.48.58-.73,1.15-.73h9.12c.6,0,1,.24,1.21.73l13.88,40.49ZM168.64,308.58h8.57l-4.29-13.77-4.29,13.77h.02Z"/>
  <path class="cls-3" d="M198.82,323.67c-.6,0-.9-.32-.9-.97v-40.31c0-.65.31-.97.9-.97h15.15c3.58,0,6.42,1.03,8.54,3.11,2.11,2.07,3.16,4.66,3.16,7.76,0,2.13-.52,3.94-1.53,5.44-1.03,1.48-2.26,2.6-3.71,3.32,2.26.65,4.16,1.84,5.73,3.6,1.57,1.74,2.36,4.07,2.36,6.97,0,3.7-1.29,6.63-3.86,8.81-2.58,2.18-6.36,3.26-11.34,3.26h-14.49v-.03ZM208.24,297.78h3.44c2.78,0,4.16-1.23,4.16-3.68s-1.39-3.5-4.16-3.5h-3.44v7.18ZM208.24,314.49h4.41c3.45,0,5.2-1.47,5.2-4.41s-1.73-4.29-5.2-4.29h-4.41v8.7Z"/>
  <path class="cls-3" d="M247.04,324.4c-3.13,0-5.94-.66-8.42-1.97-2.47-1.31-4.42-2.9-5.83-4.79-.32-.4-.31-.84.06-1.32l4.52-5.13c.44-.52.9-.6,1.39-.24,1.48,1.37,2.84,2.36,4.05,2.95,1.21.6,2.53.9,3.99.9,3.1,0,4.65-1.08,4.65-3.26,0-.48-.06-.9-.21-1.27-.15-.36-.44-.69-.87-1-.44-.31-.81-.52-1.11-.66s-.86-.39-1.66-.76l-5.13-2.36c-2.69-1.24-4.86-2.79-6.49-4.65-1.63-1.86-2.44-4.32-2.44-7.42,0-3.94,1.29-7,3.89-9.2s5.84-3.29,9.75-3.29c4.91,0,9.21,1.89,12.91,5.68.44.36.47.81.06,1.32l-4.47,5.37c-.36.56-.79.68-1.27.36-2.61-2.1-4.91-3.13-6.87-3.13-1.24,0-2.21.27-2.87.84-.66.56-1,1.29-1,2.18,0,.24.02.47.06.66.03.21.11.39.21.58.1.18.19.34.27.45s.23.26.42.42.36.29.48.39c.11.1.34.23.66.36.32.15.56.26.73.34.16.08.45.23.87.42.42.21.73.34.94.42l4.1,1.81c1.32.6,2.44,1.19,3.36,1.78.9.58,1.86,1.36,2.87,2.29,1,.95,1.76,2.1,2.26,3.47.5,1.37.76,2.92.76,4.65,0,4.23-1.45,7.41-4.34,9.57-2.9,2.15-6.31,3.23-10.26,3.23v.03Z"/>
  <path class="cls-3" d="M244.08,118.89c-.92-6.25-1.76-19.22-2.28-22.27-.53-3.05-2.73-4.66-5.42-5.31-4.81-1.16-9.07-.65-15.3-2.29-6.21-1.65-11.97-4.74-15.61-7.17-3.63-2.42-6.66-6.25-10.91-6.25-4.57,0-7.44,3.03-9.99,4.94-2.55,1.9-7.76,5.31-13.57,7.47-5.79,2.16-10.72,2.39-13.78,2.4-3.07,0-6.13.5-8.1,2.16-1.97,1.65-2.1,3.5-2.45,7.12-.36,3.61-1.48,12.51-2.29,19.56-.79,7.05-3.76,17.65-.36,27.68,3.41,10.02,11.47,23.01,22.75,35.29,11.28,12.3,20.41,18.25,23.04,20.08,2.63,1.82,5.6,1.87,7.88.52s9.7-6.68,16.82-13.28c7.12-6.6,17.19-19.41,22.64-27.92,5.45-8.5,8.04-16.73,8.57-23.01.53-6.28-.73-13.49-1.65-19.74v.02ZM233.2,137.38c-.79,6.1-2.49,10.55-6.76,17.23-4.29,6.68-10.22,14.62-17.03,21.9-6.25,6.68-13.85,12.22-15.04,13.07-.11.08-.16.11-.16.11-3.13-1.76-12.6-10.23-18.7-16.98-6.12-6.75-13.56-17.65-15.78-21.96s-4.63-8.57-4.76-16.36,1.19-19.77,1.82-24.88c.63-5.1,3.86-5.99,6.25-6.47s5.83-1.15,11.3-3.34c5.47-2.21,9.68-4.45,12.93-6.86,3.23-2.37,4.81-3.65,7.13-3.53h.05c3.41.19,6.08,3.86,13.28,7.49,7.18,3.63,12.25,5.03,15.15,5.73,2.9.69,4,.44,5.71,1.63,1.71,1.18,2.79,2.57,3.21,6.37.42,3.81,2.23,20.75,1.44,26.85h-.03Z"/>
</svg>