<?xml version="1.0" encoding="UTF-8"?>
<svg id="Layer_1" data-name="Layer 1" xmlns="http://www.w3.org/2000/svg" viewBox="0 0 600 300">
  <defs>
    <style>
      .cls-1 {
        fill: #cf0000;
      }

      .cls-2 {
        fill: #55babf;
      }

      .cls-3 {
        fill: #fff;
      }
    </style>
  </defs>
  <g>
    <path class="cls-3" d="M88.16,77.21c4.72,0,8.1,4.27,12.17,6.97s10.48,6.16,17.41,7.99c6.93,1.84,11.7,1.26,17.06,2.56,3.01.72,5.45,2.54,6.05,5.92s1.53,17.87,2.54,24.84c1.01,6.97,2.43,15.01,1.84,22.01s-3.47,16.16-9.56,25.67c-6.08,9.49-17.32,23.8-25.25,31.14-7.94,7.36-16.22,13.3-18.76,14.81s-5.85,1.46-8.78-.58c-2.93-2.03-13.1-8.68-25.7-22.39-12.58-13.72-21.58-28.19-25.38-39.37s-.49-22.99.4-30.87,2.16-17.78,2.56-21.82.54-6.1,2.74-7.94c2.2-1.84,5.6-2.39,9.04-2.41,3.42,0,8.91-.29,15.37-2.68,6.46-2.39,12.29-6.21,15.14-8.33,2.84-2.12,6.05-5.51,11.14-5.51v-.02Z"/>
    <g>
      <path class="cls-2" d="M79.99,96.43c-3.62,2.66-8.32,5.18-14.42,7.65-6.1,2.47-9.94,3.2-12.6,3.74s-6.26,1.53-6.97,7.22-2.16,19.06-2.03,27.76c.13,8.69,2.81,13.43,5.31,18.25s10.8,16.97,17.6,24.5c6.82,7.52,17.37,16.97,20.86,18.94,0,0,.07-.04.18-.13v-111.87c-2.59-.13-4.36,1.28-7.96,3.94h.02Z"/>
      <path class="cls-1" d="M129.67,116.16c-.47-4.25-1.66-5.8-3.58-7.11-1.91-1.31-3.15-1.04-6.37-1.82-3.24-.77-8.89-2.34-16.9-6.39-8.01-4.05-11.02-8.15-14.81-8.35h-.05v111.84c1.33-.95,9.79-7.13,16.78-14.58,7.6-8.12,14.22-16.97,18.99-24.43,4.79-7.45,6.66-12.42,7.54-19.22.88-6.8-1.12-25.7-1.6-29.95l.02.02Z"/>
    </g>
    <path class="cls-3" d="M88.4,196.46c-.54,0-1.15-.25-1.51-1.01-.2-.43-.25-.52-.31-15.93-.04-8.93-.04-20.54-.05-31.75,0-17.19-.04-33.43-.11-35.88-.07-2.25-.18-4.05-.31-5.47-.2,1.55-.43,3.6-.67,6.3-.4,4.48-.76,12.82-1.06,20.16-.27,6.43-.54,12.49-.79,15.23-.34,3.74-.52,5.63-2.2,5.8-1.55.14-2.02-1.4-2.59-3.38-.29-.97-.63-1.51-.83-1.75-.27.27-.65.86-.92,1.28-1.19,1.82-3.01,4.55-6.8,4.55h-27.7c-.85,0-1.53-.68-1.53-1.53s.68-1.53,1.53-1.53h27.7c2,0,2.97-1.26,4.25-3.17.9-1.35,1.82-2.75,3.51-2.75.99,0,1.87.54,2.59,1.57.23-2.92.47-8.51.72-14.42.31-7.4.67-15.77,1.08-20.3.4-4.37.76-7.31,1.13-9.23.31-1.49.81-4.01,2.77-4.01,1.85,0,2.3,2.25,2.63,4.77.32,2.5.49,5.63.54,7.83.07,2.5.09,18.76.11,35.97v6.21c.56-3.13,2.29-4,3.56-4.64.49-.25.9-.47,1.21-.77.9-.92,1.31-3.35,1.75-5.92.11-.59.2-1.21.31-1.84.27-1.48,1.15-4.91,3.55-5,2.39-.11,3.31,3.28,3.62,4.39.94,3.47,1.58,6.93,2.05,9.45.29,1.51.5,2.72.7,3.38.16.61.4,1.01.63,1.06.38.09,1.08-.29,1.31-.52,1.66-1.76,2.18-2.21,4.52-2.21h21.19c.85,0,1.53.68,1.53,1.53s-.68,1.53-1.53,1.53h-21.19c-.67,0-.95.02-1.08.09-.22.13-.65.58-1.21,1.17-.76.81-2.52,1.84-4.28,1.4-.97-.23-2.23-.99-2.84-3.22-.22-.79-.45-2.03-.76-3.62-.47-2.47-1.1-5.85-2-9.22-.22-.79-.41-1.31-.58-1.66-.2.43-.45,1.1-.61,2.03-.11.61-.22,1.21-.31,1.78-.54,3.2-.99,5.96-2.57,7.58-.67.67-1.37,1.03-2,1.35-1.08.56-1.67.85-1.96,2.59-.56,3.44-1.71,28.21-1.94,34.22-.09,2.14-.2,3.78-.34,4.86-.14,1.1-.31,2.45-1.58,2.72-.09.02-.2.04-.31.04l-.02-.09Z"/>
  </g>
  <g>
    <g>
      <path class="cls-3" d="M186.01,148.65c-3.49,0-6.62-.74-9.4-2.2-2.75-1.46-4.93-3.24-6.5-5.35-.36-.45-.34-.94.07-1.48l5.04-5.72c.49-.58,1.01-.67,1.55-.27,1.66,1.53,3.17,2.63,4.52,3.29s2.83,1.01,4.45,1.01c3.46,0,5.18-1.21,5.18-3.64,0-.54-.07-1.01-.23-1.42-.16-.4-.49-.77-.97-1.12-.49-.34-.9-.58-1.24-.74s-.95-.43-1.85-.85l-5.72-2.63c-3.01-1.39-5.42-3.11-7.24-5.18-1.82-2.07-2.72-4.82-2.72-8.28,0-4.39,1.44-7.81,4.34-10.26s6.52-3.67,10.87-3.67c5.47,0,10.28,2.11,14.4,6.34.49.4.52.9.07,1.48l-4.99,5.99c-.4.63-.88.76-1.42.4-2.92-2.34-5.47-3.49-7.67-3.49-1.39,0-2.47.31-3.2.94-.74.63-1.12,1.44-1.12,2.43,0,.27.02.52.07.74.04.23.13.43.23.65.11.2.22.38.31.5.09.13.25.29.47.47s.4.32.54.43c.13.11.38.25.74.4.36.16.63.29.81.38s.5.25.97.47c.47.23.81.38,1.04.47l4.57,2.02c1.48.67,2.72,1.33,3.74,1.98,1.01.65,2.07,1.51,3.2,2.56,1.12,1.06,1.96,2.34,2.52,3.87.56,1.53.85,3.26.85,5.18,0,4.72-1.62,8.26-4.84,10.67-3.24,2.39-7.04,3.6-11.45,3.6v.04Z"/>
      <path class="cls-3" d="M219.08,147.84c-.67,0-1.01-.36-1.01-1.08v-20.47l-13.73-24.37c-.4-.81-.18-1.21.67-1.21h9.97c.58,0,1.01.23,1.28.67l7.67,14.35,7.67-14.35c.27-.45.67-.67,1.21-.67h9.97c.9,0,1.15.4.74,1.21l-13.73,24.5v20.32c0,.72-.36,1.08-1.08,1.08h-9.63l.02.02Z"/>
      <path class="cls-3" d="M288.08,100.72c.72,0,1.08.36,1.08,1.08v44.97c0,.72-.36,1.08-1.08,1.08h-11.11c-.54,0-.94-.22-1.21-.67l-14.4-27.06v26.66c0,.72-.36,1.08-1.08,1.08h-9.63c-.67,0-1.01-.36-1.01-1.08v-44.98c0-.72.34-1.08,1.01-1.08h11.11c.54,0,.94.23,1.21.67l14.4,27.06v-26.66c0-.72.36-1.08,1.08-1.08h9.63v.02Z"/>
      <path class="cls-3" d="M320.53,148.72c-6.73,0-12.49-2.32-17.26-6.97-4.79-4.64-7.16-10.4-7.16-17.26s2.39-12.64,7.16-17.3c4.79-4.66,10.53-7,17.26-7s12.22,2.38,16.76,7.13c.36.36.31.81-.13,1.35l-5.99,6.39c-.36.54-.81.58-1.35.13-2.7-2.34-5.8-3.49-9.29-3.49s-6.59,1.21-8.98,3.64-3.6,5.47-3.6,9.16,1.21,6.71,3.6,9.13c2.39,2.39,5.4,3.6,8.98,3.6s6.61-1.17,9.29-3.49c.49-.4.97-.36,1.42.13l5.92,6.39c.45.49.49.92.13,1.28-4.54,4.81-10.12,7.2-16.76,7.2h0Z"/>
      <path class="cls-3" d="M345.18,147.84c-.67,0-1.01-.36-1.01-1.08v-44.97c0-.72.34-1.08,1.01-1.08h9.63c.72,0,1.08.36,1.08,1.08v17.84h15.01v-17.84c0-.72.36-1.08,1.08-1.08h9.63c.67,0,1.01.36,1.01,1.08v44.97c0,.72-.34,1.08-1.01,1.08h-9.63c-.72,0-1.08-.36-1.08-1.08v-16.83h-15.01v16.83c0,.72-.36,1.08-1.08,1.08,0,0-9.63,0-9.63,0Z"/>
      <path class="cls-3" d="M425.55,146.64c.49.81.27,1.21-.67,1.21h-10.22c-.54,0-.94-.22-1.21-.67l-9.29-15.21h-1.48v14.81c0,.72-.36,1.08-1.08,1.08h-9.63c-.67,0-1.01-.36-1.01-1.08v-44.98c0-.72.34-1.08,1.01-1.08h14.81c5.62,0,9.85,1.4,12.73,4.21,2.88,2.81,4.3,6.61,4.3,11.41,0,7-2.81,11.7-8.41,14.08l10.17,16.22h-.04ZM402.65,111.08v10.49h3.83c4.09,0,6.12-1.75,6.12-5.26s-2.03-5.26-6.12-5.26h-3.83v.02Z"/>
      <path class="cls-3" d="M470.86,141.69c-4.75,4.7-10.48,7.04-17.17,7.04s-12.4-2.34-17.17-7.04c-4.75-4.7-7.13-10.42-7.13-17.21s2.38-12.53,7.13-17.23c4.75-4.72,10.48-7.07,17.17-7.07s12.4,2.36,17.17,7.07c4.75,4.72,7.13,10.46,7.13,17.23s-2.38,12.51-7.13,17.21ZM444.81,133.57c2.38,2.43,5.35,3.64,8.89,3.64s6.5-1.21,8.86-3.64c2.36-2.43,3.53-5.45,3.53-9.09s-1.17-6.73-3.53-9.16c-2.36-2.43-5.31-3.64-8.86-3.64s-6.52,1.21-8.89,3.64-3.56,5.47-3.56,9.16,1.19,6.66,3.56,9.09Z"/>
      <path class="cls-3" d="M523.44,100.72c.72,0,1.08.36,1.08,1.08v44.97c0,.72-.36,1.08-1.08,1.08h-11.11c-.54,0-.94-.22-1.21-.67l-14.4-27.06v26.66c0,.72-.36,1.08-1.08,1.08h-9.63c-.67,0-1.01-.36-1.01-1.08v-44.98c0-.72.34-1.08,1.01-1.08h11.11c.54,0,.94.23,1.21.67l14.4,27.06v-26.66c0-.72.36-1.08,1.08-1.08h9.63v.02Z"/>
      <path class="cls-3" d="M545.38,147.84c-.67,0-1.01-.36-1.01-1.08v-20.47l-13.73-24.37c-.4-.81-.18-1.21.67-1.21h9.97c.58,0,1.01.23,1.28.67l7.67,14.35,7.67-14.35c.27-.45.67-.67,1.21-.67h9.97c.9,0,1.15.4.74,1.21l-13.73,24.5v20.32c0,.72-.36,1.08-1.08,1.08h-9.63l.02.02Z"/>
    </g>
    <g>
      <path class="cls-3" d="M196.22,194.63c.67,0,1.01.34,1.01,1.01v8.35c0,.67-.34,1.01-1.01,1.01h-23.83c-.67,0-1.01-.36-1.01-1.08v-44.97c0-.72.34-1.08,1.01-1.08h9.63c.72,0,1.08.36,1.08,1.08v35.68s13.12,0,13.12,0Z"/>
      <path class="cls-3" d="M244.89,203.84c.13.31.11.58-.07.81s-.45.34-.81.34h-10.03c-.63,0-1.03-.27-1.21-.81l-1.75-5.65h-16.09l-1.75,5.65c-.18.54-.56.81-1.15.81h-10.03c-.36,0-.63-.11-.81-.34-.18-.22-.2-.49-.07-.81l15.48-45.16c.22-.54.65-.81,1.28-.81h10.17c.67,0,1.12.27,1.35.81l15.48,45.16ZM218.24,188.16h9.56l-4.79-15.35-4.79,15.35h.02Z"/>
      <path class="cls-3" d="M251.9,204.99c-.67,0-1.01-.36-1.01-1.08v-44.97c0-.72.34-1.08,1.01-1.08h16.9c4,0,7.16,1.15,9.52,3.47,2.36,2.3,3.53,5.2,3.53,8.66,0,2.38-.58,4.39-1.71,6.07-1.15,1.66-2.52,2.9-4.14,3.71,2.52.72,4.64,2.05,6.39,4.01,1.75,1.94,2.63,4.54,2.63,7.78,0,4.12-1.44,7.4-4.3,9.83-2.88,2.43-7.09,3.64-12.65,3.64h-16.16v-.04ZM262.41,176.12h3.83c3.1,0,4.64-1.37,4.64-4.1s-1.55-3.91-4.64-3.91h-3.83v8.01ZM262.41,194.75h4.91c3.85,0,5.8-1.64,5.8-4.91s-1.93-4.79-5.8-4.79h-4.91v9.7Z"/>
      <path class="cls-3" d="M305.68,205.8c-3.49,0-6.62-.74-9.4-2.2-2.75-1.46-4.93-3.24-6.5-5.35-.36-.45-.34-.94.07-1.48l5.04-5.72c.49-.58,1.01-.67,1.55-.27,1.66,1.53,3.17,2.63,4.52,3.29s2.83,1.01,4.45,1.01c3.46,0,5.18-1.21,5.18-3.64,0-.54-.07-1.01-.23-1.42-.16-.4-.49-.77-.97-1.12-.49-.34-.9-.58-1.24-.74s-.95-.43-1.85-.85l-5.72-2.63c-3.01-1.39-5.42-3.11-7.24-5.18-1.82-2.07-2.72-4.82-2.72-8.28,0-4.39,1.44-7.81,4.34-10.26s6.52-3.67,10.87-3.67c5.47,0,10.28,2.11,14.4,6.34.49.4.52.9.07,1.48l-4.99,5.99c-.4.63-.88.76-1.42.4-2.92-2.34-5.47-3.49-7.67-3.49-1.39,0-2.47.31-3.2.94-.74.63-1.12,1.44-1.12,2.43,0,.27.02.52.07.74.04.23.13.43.23.65.11.2.22.38.31.5s.25.29.47.47.4.32.54.43c.13.11.38.25.74.4.36.16.63.29.81.38.18.09.5.25.97.47.47.23.81.38,1.04.47l4.57,2.02c1.48.67,2.72,1.33,3.74,1.98,1.01.65,2.07,1.51,3.2,2.56,1.12,1.06,1.96,2.34,2.52,3.87.56,1.53.85,3.26.85,5.18,0,4.72-1.62,8.26-4.84,10.67-3.24,2.39-7.04,3.6-11.45,3.6v.04Z"/>
    </g>
  </g>
</svg>